<svg width="269" height="41" viewBox="0 0 269 41" fill="none" xmlns="http://www.w3.org/2000/svg">
<path d="M17.72 9H23.44V41H17.72V28.04C16.2 30.12 13.88 31.48 10.8 31.48C5.04 31.48 0.76 26.76 0.76 20C0.76 13.2 5.12 8.52 10.76 8.52C13.88 8.52 16.2 9.96 17.72 12.08V9ZM12.08 26.04C15.28 26.04 17.72 23.64 17.72 20C17.72 16.4 15.28 13.96 12.08 13.96C8.88 13.96 6.52 16.4 6.52 20C6.52 23.64 8.92 26.04 12.08 26.04ZM48.4788 9H54.5588L46.9988 31H40.1588L32.5988 9H38.6788L43.5588 24.8L48.4788 9ZM73.2634 8.52C80.5434 8.52 85.0634 14.24 84.5034 21.48H67.6234C67.9834 25 70.3834 26.76 73.3434 26.76C75.5434 26.76 77.4634 25.76 78.2234 24H84.1434C82.5034 29.2 78.1034 31.48 73.3834 31.48C66.5034 31.48 61.7834 26.6 61.7834 20.04C61.7834 13.44 66.5434 8.52 73.2634 8.52ZM73.2234 13.24C70.4234 13.24 68.6234 14.92 67.9034 17.28H78.4234C77.7834 14.88 75.9834 13.24 73.2234 13.24ZM106.997 8.52C107.517 8.52 107.917 8.56 108.277 8.6V14.48C107.837 14.44 107.517 14.4 106.877 14.4C103.237 14.4 100.117 16 100.117 21.2V31H94.3972V9H100.117V12.84C101.477 9.96 103.877 8.52 106.997 8.52ZM127.549 31.48C121.669 31.48 117.389 28.6 116.589 23.76H122.389C122.829 25.52 124.149 26.72 127.709 26.72C130.229 26.72 131.429 26.12 131.429 24.92C131.429 23.44 129.709 23.32 126.389 22.52C120.149 21.04 117.589 19.64 117.589 15.84C117.589 11.2 121.429 8.52 127.229 8.52C133.349 8.52 136.349 11.48 137.109 15.56H131.309C130.869 14.16 129.669 13.32 127.029 13.32C124.749 13.32 123.349 13.96 123.349 15.16C123.349 16.2 124.349 16.4 127.549 17.12C133.829 18.56 137.349 19.76 137.349 24.16C137.349 29.08 132.989 31.48 127.549 31.48ZM158.021 8.52C165.301 8.52 169.821 14.24 169.261 21.48H152.381C152.741 25 155.141 26.76 158.101 26.76C160.301 26.76 162.221 25.76 162.981 24H168.901C167.261 29.2 162.861 31.48 158.141 31.48C151.261 31.48 146.541 26.6 146.541 20.04C146.541 13.44 151.301 8.52 158.021 8.52ZM157.981 13.24C155.181 13.24 153.381 14.92 152.661 17.28H163.181C162.541 14.88 160.741 13.24 157.981 13.24ZM197.187 31V0.199998H202.907V31H197.187ZM229.9 9H235.62L235.58 31H229.86V28.04C228.34 30.12 226.06 31.48 222.98 31.48C217.22 31.48 212.94 26.76 212.94 20C212.94 13.2 217.3 8.52 222.94 8.52C226.06 8.52 228.38 9.96 229.9 12.08V9ZM224.26 26.04C227.46 26.04 229.9 23.64 229.9 20C229.9 16.4 227.46 13.96 224.26 13.96C221.06 13.96 218.7 16.4 218.7 20C218.7 23.64 221.1 26.04 224.26 26.04ZM258.858 8.52C264.498 8.52 268.898 13.2 268.898 20C268.898 26.76 264.578 31.48 258.858 31.48C255.738 31.48 253.458 30.12 251.898 28.04V31H246.178V0.199998H251.898V12.08C253.418 9.96 255.778 8.52 258.858 8.52ZM257.538 26.04C260.698 26.04 263.098 23.64 263.098 20C263.098 16.4 260.738 13.96 257.538 13.96C254.338 13.96 251.898 16.4 251.898 20C251.898 23.64 254.338 26.04 257.538 26.04Z" fill="black"/>
</svg>
